<svg xmlns="http://www.w3.org/2000/svg" width="400" height="72" viewBox="0 0 400 72">
  <rect width="400" height="72" fill="#1B3A6B"/>
  <!-- Building scaled to 72px height (scale = 72/34 = 2.118) -->
  <rect x="2.12" y="8.47" width="14.82" height="62.47" fill="#D4A017"/>
  <rect x="105.88" y="8.47" width="14.82" height="62.47" fill="#D4A017"/>
  <rect x="16.94" y="2.12" width="88.94" height="10.59" fill="#D4A017"/>
  <rect x="16.94" y="12.71" width="2.96" height="33.88" fill="#D4A017"/>
  <rect x="34.14" y="12.71" width="2.96" height="33.88" fill="#D4A017"/>
  <rect x="51.34" y="12.71" width="2.96" height="33.88" fill="#D4A017"/>
  <rect x="68.54" y="12.71" width="2.96" height="33.88" fill="#D4A017"/>
  <rect x="85.74" y="12.71" width="2.96" height="33.88" fill="#D4A017"/>
  <rect x="102.94" y="12.71" width="2.96" height="33.88" fill="#D4A017"/>
  <rect x="27.02" y="12.71" width="0.85" height="33.88" fill="#D4A017"/>
  <rect x="44.22" y="12.71" width="0.85" height="33.88" fill="#D4A017"/>
  <rect x="61.42" y="12.71" width="0.85" height="33.88" fill="#D4A017"/>
  <rect x="78.62" y="12.71" width="0.85" height="33.88" fill="#D4A017"/>
  <rect x="95.82" y="12.71" width="0.85" height="33.88" fill="#D4A017"/>
  <rect x="19.9" y="24.35" width="14.24" height="0.85" fill="#D4A017"/>
  <rect x="19.9" y="36.0" width="14.24" height="0.85" fill="#D4A017"/>
  <rect x="37.1" y="24.35" width="14.24" height="0.85" fill="#D4A017"/>
  <rect x="37.1" y="36.0" width="14.24" height="0.85" fill="#D4A017"/>
  <rect x="54.3" y="24.35" width="14.24" height="0.85" fill="#D4A017"/>
  <rect x="54.3" y="36.0" width="14.24" height="0.85" fill="#D4A017"/>
  <rect x="71.5" y="24.35" width="14.24" height="0.85" fill="#D4A017"/>
  <rect x="71.5" y="36.0" width="14.24" height="0.85" fill="#D4A017"/>
  <rect x="88.7" y="24.35" width="14.24" height="0.85" fill="#D4A017"/>
  <rect x="88.7" y="36.0" width="14.24" height="0.85" fill="#D4A017"/>
  <rect x="16.94" y="46.59" width="88.94" height="7.41" fill="#D4A017"/>
  <rect x="16.94" y="54.0" width="2.96" height="16.94" fill="#D4A017"/>
  <rect x="34.14" y="54.0" width="2.96" height="16.94" fill="#D4A017"/>
  <rect x="51.34" y="54.0" width="2.96" height="16.94" fill="#D4A017"/>
  <rect x="68.54" y="54.0" width="2.96" height="16.94" fill="#D4A017"/>
  <rect x="85.74" y="54.0" width="2.96" height="16.94" fill="#D4A017"/>
  <rect x="102.94" y="54.0" width="2.96" height="16.94" fill="#D4A017"/>
  <rect x="37.1" y="54.0" width="14.24" height="16.94" fill="#D4A017"/>
  <rect x="54.3" y="54.0" width="14.24" height="16.94" fill="#D4A017"/>
  <rect x="71.5" y="54.0" width="14.24" height="16.94" fill="#D4A017"/>
  <rect x="16.94" y="69.94" width="88.94" height="1.06" fill="#D4A017"/>
  <!-- Logotype -->
  <text x="135" y="8" font-family="'Geist','Arial Black',Arial,sans-serif" font-weight="800" font-size="60" letter-spacing="-1.2" fill="#D4A017" dominant-baseline="hanging">Enlisted.ca</text>
</svg>
