<svg xmlns="http://www.w3.org/2000/svg" width="90" height="52" viewBox="0 0 58 34">
  <rect x="1" y="4" width="7" height="29.5" fill="#D4A017"/>
  <rect x="50" y="4" width="7" height="29.5" fill="#D4A017"/>
  <rect x="8" y="1" width="42" height="5" fill="#D4A017"/>
  <rect x="8" y="6" width="1.4" height="16" fill="#D4A017"/>
  <rect x="16.12" y="6" width="1.4" height="16" fill="#D4A017"/>
  <rect x="24.24" y="6" width="1.4" height="16" fill="#D4A017"/>
  <rect x="32.36" y="6" width="1.4" height="16" fill="#D4A017"/>
  <rect x="40.48" y="6" width="1.4" height="16" fill="#D4A017"/>
  <rect x="48.6" y="6" width="1.4" height="16" fill="#D4A017"/>
  <rect x="12.76" y="6" width="0.4" height="16" fill="#D4A017"/>
  <rect x="20.88" y="6" width="0.4" height="16" fill="#D4A017"/>
  <rect x="29.0" y="6" width="0.4" height="16" fill="#D4A017"/>
  <rect x="37.12" y="6" width="0.4" height="16" fill="#D4A017"/>
  <rect x="45.24" y="6" width="0.4" height="16" fill="#D4A017"/>
  <rect x="9.4" y="11.5" width="6.72" height="0.4" fill="#D4A017"/>
  <rect x="9.4" y="17" width="6.72" height="0.4" fill="#D4A017"/>
  <rect x="17.52" y="11.5" width="6.72" height="0.4" fill="#D4A017"/>
  <rect x="17.52" y="17" width="6.72" height="0.4" fill="#D4A017"/>
  <rect x="25.64" y="11.5" width="6.72" height="0.4" fill="#D4A017"/>
  <rect x="25.64" y="17" width="6.72" height="0.4" fill="#D4A017"/>
  <rect x="33.76" y="11.5" width="6.72" height="0.4" fill="#D4A017"/>
  <rect x="33.76" y="17" width="6.72" height="0.4" fill="#D4A017"/>
  <rect x="41.88" y="11.5" width="6.72" height="0.4" fill="#D4A017"/>
  <rect x="41.88" y="17" width="6.72" height="0.4" fill="#D4A017"/>
  <rect x="8" y="22" width="42" height="3.5" fill="#D4A017"/>
  <rect x="8" y="25.5" width="1.4" height="8" fill="#D4A017"/>
  <rect x="16.12" y="25.5" width="1.4" height="8" fill="#D4A017"/>
  <rect x="24.24" y="25.5" width="1.4" height="8" fill="#D4A017"/>
  <rect x="32.36" y="25.5" width="1.4" height="8" fill="#D4A017"/>
  <rect x="40.48" y="25.5" width="1.4" height="8" fill="#D4A017"/>
  <rect x="48.6" y="25.5" width="1.4" height="8" fill="#D4A017"/>
  <rect x="17.52" y="25.5" width="6.72" height="8" fill="#D4A017"/>
  <rect x="25.64" y="25.5" width="6.72" height="8" fill="#D4A017"/>
  <rect x="33.76" y="25.5" width="6.72" height="8" fill="#D4A017"/>
  <rect x="8" y="33" width="42" height="0.5" fill="#D4A017"/>
</svg>
